<?xml version="1.0" encoding="utf-8"?>
<!-- Generator: Adobe Illustrator 16.0.4, SVG Export Plug-In . SVG Version: 6.00 Build 0)  -->
<!DOCTYPE svg PUBLIC "-//W3C//DTD SVG 1.1//EN" "http://www.w3.org/Graphics/SVG/1.1/DTD/svg11.dtd">
<svg version="1.1" id="Layer_1" xmlns="http://www.w3.org/2000/svg" xmlns:xlink="http://www.w3.org/1999/xlink" x="0px" y="0px"
	 width="140px" height="48px" viewBox="0 0 140 48" enable-background="new 0 0 140 48" xml:space="preserve">
<g>
	<path fill="#FFFFFF" d="M100.82,14.268v0.733h0.408c0.315,0,0.482-0.085,0.482-0.356c0-0.283-0.146-0.368-0.461-0.377H100.82z
		 M101.259,15.358h-0.438l0.01,0.934h-0.398V13.93h0.818c0.534,0,0.871,0.21,0.871,0.715c0,0.325-0.178,0.535-0.441,0.629
		l0.619,1.019h-0.492L101.259,15.358z M103.002,15.138c0-0.967-0.787-1.755-1.753-1.755s-1.753,0.789-1.753,1.755
		c0,1.006,0.693,1.753,1.753,1.753C102.216,16.891,103.002,16.104,103.002,15.138 M99.107,15.138c0-1.175,0.966-2.142,2.143-2.142
		s2.141,0.967,2.141,2.142c0,1.174-0.964,2.141-2.141,2.141C99.979,17.279,99.107,16.407,99.107,15.138"/>
	<path fill="#FFFFFF" d="M137.468,12.157c-0.03-0.111-0.063-0.224-0.098-0.333c-0.067-0.218-0.142-0.438-0.22-0.651
		c-0.041-0.107-0.08-0.215-0.125-0.32c-0.103-0.264-0.215-0.526-0.334-0.785c-0.047-0.102-0.098-0.205-0.148-0.306
		c-0.052-0.102-0.102-0.202-0.154-0.303c-0.106-0.199-0.217-0.397-0.332-0.592c-0.057-0.096-0.117-0.194-0.177-0.289
		c-0.088-0.143-0.181-0.285-0.274-0.424c-0.032-0.047-0.064-0.094-0.097-0.141c-0.063-0.091-0.128-0.184-0.194-0.275
		c-0.133-0.18-0.27-0.361-0.41-0.534c-0.211-0.261-0.434-0.518-0.662-0.763c-0.227-0.246-0.469-0.486-0.713-0.715
		c-0.084-0.076-0.166-0.152-0.248-0.226c-0.125-0.111-0.256-0.22-0.385-0.328c-0.172-0.143-0.352-0.281-0.529-0.415
		c-0.406-0.303-0.831-0.588-1.266-0.844c-0.192-0.116-0.394-0.226-0.59-0.331c-0.1-0.052-0.203-0.104-0.304-0.154
		c-0.923-0.458-1.896-0.814-2.897-1.06c-0.056-0.012-0.11-0.024-0.168-0.039c-0.113-0.027-0.228-0.052-0.34-0.075
		c-0.229-0.048-0.462-0.089-0.691-0.124c-0.291-0.043-0.584-0.078-0.879-0.106c-0.117-0.01-0.236-0.019-0.355-0.024
		c-0.297-0.021-0.602-0.031-0.9-0.031c-1.893,0-3.729,0.373-5.459,1.103c-1.67,0.705-3.168,1.718-4.457,3.005
		s-2.299,2.787-3.006,4.459c-0.729,1.728-1.102,3.566-1.102,5.458c0,1.542,0.248,3.057,0.738,4.504
		c0.102,0.302,0.217,0.607,0.341,0.903c0.103,0.245,0.341,0.396,0.597,0.396c0.018,0,0.034-0.001,0.051-0.001
		c0.334-0.026,0.596-0.306,0.596-0.645c0-0.04-0.002-0.078-0.008-0.114c-0.221-1.666-0.332-3.362-0.332-5.043
		c0-1.626,0.317-3.203,0.946-4.688c0.606-1.433,1.476-2.72,2.58-3.828c1.106-1.105,2.396-1.973,3.828-2.581
		c1.483-0.628,3.062-0.945,4.688-0.945c1.625,0,3.201,0.316,4.687,0.945c1.435,0.607,2.722,1.475,3.829,2.581
		c1.104,1.108,1.973,2.396,2.58,3.828c0.629,1.486,0.947,3.063,0.947,4.688c0,1.073,0.121,2.142,0.361,3.178
		c0.067,0.291,0.33,0.5,0.629,0.5c0.301,0,0.563-0.209,0.631-0.5c0.238-1.036,0.359-2.104,0.359-3.178
		C138,14.689,137.82,13.398,137.468,12.157"/>
	<path fill="#FFFFFF" d="M134.725,19.742c-0.298-1.219-0.447-2.48-0.447-3.747c0-1.391-0.272-2.74-0.811-4.011
		c-0.519-1.227-1.262-2.327-2.208-3.274c-0.946-0.944-2.048-1.688-3.274-2.208c-1.27-0.537-2.617-0.808-4.008-0.808
		c-1.392,0-2.74,0.271-4.011,0.808c-1.227,0.52-2.329,1.264-3.272,2.208c-0.947,0.947-1.689,2.047-2.209,3.274
		c-0.537,1.271-0.81,2.62-0.81,4.011c0,3.717,0.56,7.387,1.661,10.901c0.041,0.129,0.121,0.242,0.23,0.324
		c0.313,0.235,0.644,0.461,0.979,0.672c0.105,0.065,0.225,0.098,0.344,0.098h0.002c0.355-0.001,0.646-0.288,0.646-0.646
		c0-0.084-0.017-0.164-0.045-0.236c-1.218-3.564-1.835-7.304-1.835-11.112c0-2.222,0.865-4.311,2.437-5.883
		c1.571-1.569,3.659-2.437,5.882-2.437s4.312,0.868,5.881,2.437c1.572,1.572,2.438,3.661,2.438,5.883
		c0,2.814,0.677,5.622,1.96,8.117c0.104,0.2,0.303,0.333,0.525,0.35c0.226,0.017,0.443-0.085,0.574-0.268
		c0.162-0.223,0.315-0.455,0.465-0.684c0.119-0.191,0.134-0.429,0.035-0.629C135.369,21.878,134.988,20.822,134.725,19.742"/>
	<path fill="#FFFFFF" d="M130.553,15.995c0-1.759-0.684-3.408-1.927-4.65c-1.242-1.243-2.894-1.927-4.649-1.927
		s-3.41,0.684-4.65,1.927c-1.243,1.242-1.926,2.891-1.926,4.65c0,2.369,0.254,4.732,0.757,7.022
		c0.468,2.139,1.157,4.237,2.049,6.238c0.082,0.185,0.242,0.318,0.438,0.366c0.287,0.068,0.58,0.13,0.873,0.182
		c0.012,0,0.023,0.004,0.035,0.006c0.028,0.004,0.055,0.006,0.082,0.006c0.008,0,0.014,0,0.02,0
		c0.349-0.012,0.629-0.295,0.629-0.646c0-0.107-0.025-0.208-0.072-0.298c-0.837-1.808-1.497-3.699-1.966-5.629
		c-0.572-2.36-0.862-4.798-0.862-7.247c0-2.534,2.061-4.594,4.596-4.594c2.533,0,4.596,2.061,4.596,4.594
		c0,3.856,1.035,7.641,2.992,10.943c0.096,0.158,0.252,0.269,0.435,0.304c0.183,0.036,0.371-0.007,0.517-0.121
		c0.192-0.149,0.383-0.304,0.567-0.461c0.239-0.203,0.296-0.546,0.138-0.818C131.475,22.867,130.553,19.462,130.553,15.995"/>
	<path fill="#FFFFFF" d="M126.829,15.995c0-1.574-1.28-2.853-2.853-2.853c-1.574,0-2.854,1.279-2.854,2.853
		c0,2.485,0.314,4.95,0.938,7.332c0.571,2.188,1.404,4.306,2.474,6.304c0.114,0.21,0.333,0.34,0.569,0.34
		c0.018,0,0.037,0,0.056-0.002c0.257-0.023,0.518-0.052,0.774-0.086c0.209-0.029,0.393-0.16,0.487-0.351
		c0.095-0.189,0.093-0.413-0.01-0.601c-0.998-1.817-1.783-3.75-2.333-5.74c-0.646-2.334-0.973-4.754-0.973-7.197
		c0-0.481,0.392-0.871,0.871-0.871c0.48,0,0.873,0.39,0.873,0.871c0,4.5,1.201,8.919,3.476,12.776
		c0.161,0.276,0.498,0.391,0.794,0.274c0.227-0.088,0.451-0.185,0.671-0.285c0.167-0.077,0.294-0.219,0.349-0.396
		c0.057-0.175,0.033-0.365-0.062-0.524C127.952,24.269,126.829,20.173,126.829,15.995"/>
	<path fill="#FFFFFF" d="M62.753,15.138c0,1.224-0.994,2.141-2.141,2.141c-1.146,0-2.141-0.917-2.141-2.141
		c0-1.224,0.994-2.142,2.141-2.142S62.753,13.914,62.753,15.138"/>
	<path fill="#FFFFFF" d="M46.084,26.072h0.076c0.802-3.058,2.065-5.429,5.238-5.429c2.103,0,3.021,1.492,3.021,2.638
		c0,1.032-0.841,2.027-2.027,2.027c-1.224,0-1.875-0.729-1.875-1.796c0-0.613,0.268-1.147,0.805-1.494
		c-0.154-0.038-0.269-0.075-0.498-0.075c-2.562,0-4.303,4.561-4.303,11.825v2.256c0,1.195,0.679,1.721,2.775,1.746h-0.001
		c0.358,0,0.65,0.291,0.65,0.651c0,0.358-0.292,0.649-0.65,0.649H40.55c-0.36,0-0.65-0.291-0.65-0.649c0-0.36,0.29-0.653,0.65-0.653
		c1.825-0.059,2.407-0.477,2.407-1.604V24.008c0-1.053-0.54-1.483-2.096-1.583c-0.366,0-0.694-0.298-0.694-0.665
		c0-0.366,0.296-0.661,0.663-0.661l5.254-0.226V26.072z"/>
	<path fill="#FFFFFF" d="M62.829,36.023c0,1.195,0.68,1.721,2.776,1.746h-0.001c0.36,0,0.651,0.291,0.651,0.651
		c0,0.356-0.292,0.649-0.651,0.649h-8.745c-0.359,0-0.65-0.291-0.65-0.649c0-0.36,0.292-0.653,0.65-0.653
		c1.823-0.059,2.407-0.477,2.407-1.604V24.008c0-1.053-0.541-1.483-2.095-1.583c-0.366,0-0.694-0.298-0.694-0.665
		c0-0.366,0.297-0.661,0.661-0.661l5.691-0.226V36.023z"/>
	<path fill="#FFFFFF" d="M71.975,42.982c0,1.194,0.678,1.722,2.774,1.744l0,0c0.358,0,0.649,0.295,0.649,0.653
		c0,0.359-0.291,0.649-0.649,0.649h-8.745c-0.359,0-0.651-0.291-0.651-0.649s0.292-0.653,0.651-0.653
		c1.823-0.06,2.407-0.477,2.407-1.603V24.006c0-1.052-0.541-1.483-2.096-1.583c-0.366,0-0.693-0.296-0.693-0.662
		c0-0.366,0.295-0.665,0.663-0.665l5.416-0.222v3.746h0.076c0.957-2.141,2.334-3.976,5.392-3.976c4.474,0,8.067,4.473,8.067,9.25
		c0,5.047-3.44,9.637-8.027,9.637c-2.715,0-3.979-0.917-5.125-3.098h-0.107v6.549H71.975z M72.007,30.2v1.032
		c0,5.812,3.097,6.996,4.359,6.996c3.593,0,4.971-2.371,4.971-8.028c0-4.814-1.378-8.258-4.667-8.258
		C73.766,21.942,72.007,25.386,72.007,30.2"/>
	<path fill="#FFFFFF" d="M38.454,35.826c-1.561,2.283-3.841,3.705-7.089,3.705c-5.24,0-9.251-3.977-9.251-9.445
		c0-5.466,4.854-9.442,9.978-9.442c3.135,0,6.348,1.529,6.348,4.281c0,1.302-0.918,2.449-2.372,2.449
		c-1.492,0-2.369-0.919-2.369-2.063c0-1.147,0.687-1.836,1.949-1.836c0.268,0,0.535,0.04,0.803,0.076
		c-0.574-1.108-2.102-1.606-4.206-1.606c-3.709,0-6.003,2.638-6.003,7.724c0,4.779,1.759,8.562,5.85,8.562
		c2.495,0,4.157-1.28,5.44-2.996c0.167-0.256,0.524-0.356,0.779-0.19C38.567,35.209,38.619,35.568,38.454,35.826"/>
	<path fill="#FFFFFF" d="M2,30.043c0-0.332,0.27-0.604,0.603-0.604c0.287,0,0.529,0.203,0.588,0.47
		c0.908,4.088,3.903,8.319,8.443,8.319c2.868,0,5.697-1.873,5.697-4.969c0-8.604-15.293-3.519-15.293-13.688
		c0-4.59,4.092-7.267,8.182-7.267c3.479,0,5.313,2.217,6.231,2.217c0.431,0,0.829-0.783,1.042-1.332
		c0.114-0.269,0.39-0.468,0.701-0.468c0.414,0,0.749,0.337,0.749,0.751v7.456c0,0.353-0.285,0.637-0.638,0.637
		c-0.291,0-0.505-0.178-0.614-0.509c-1.065-3.613-3.242-7.451-7.434-7.451c-2.907,0-5.086,1.568-5.086,4.627
		c0,7.303,15.295,3.363,15.295,12.77c0,5.313-4.091,8.526-9.176,8.526c-3.595,0-4.972-1.988-6.423-1.988
		c-0.842,0-1.212,0.576-1.585,1.332c-0.112,0.225-0.337,0.38-0.603,0.38C2.306,39.254,2,38.95,2,38.573V30.043z"/>
	<path fill="#FFFFFF" d="M96.477,33.854c0-0.309,0.248-0.557,0.556-0.557c0.305,0,0.553,0.249,0.553,0.557
		c0,3.438-1.069,5.676-4.856,5.676c-2.677,0-4.74-0.879-4.74-4.664V22.402h-2.188c-0.371,0-0.672-0.321-0.672-0.691
		s0.219-0.587,0.672-0.672c2.864-0.341,3.42-1.412,4.245-5.138c0.103-0.504,0.343-0.763,0.763-0.763
		c0.424,0,0.772,0.342,0.772,0.763v5.201h4.745c0.357,0,0.634,0.305,0.634,0.663c0,0.361-0.276,0.637-0.634,0.637h-4.745v13.839
		c0,1.606,0.994,1.989,2.104,1.989C95.177,38.229,96.477,37.094,96.477,33.854"/>
</g>
</svg>
