<?xml version="1.0" encoding="utf-8"?>
<!-- Generator: Adobe Illustrator 16.0.0, SVG Export Plug-In . SVG Version: 6.00 Build 0)  -->
<!DOCTYPE svg PUBLIC "-//W3C//DTD SVG 1.1//EN" "http://www.w3.org/Graphics/SVG/1.1/DTD/svg11.dtd">
<svg version="1.1" id="Layer_1" xmlns="http://www.w3.org/2000/svg" xmlns:xlink="http://www.w3.org/1999/xlink" x="0px" y="0px"
	 width="140px" height="48px" viewBox="0 0 140 48" enable-background="new 0 0 140 48" xml:space="preserve">
<g>
	<path d="M100.821,14.268v0.733h0.407c0.316,0,0.483-0.085,0.483-0.356c0-0.283-0.146-0.368-0.461-0.377H100.821z M101.259,15.358
		h-0.438l0.009,0.934h-0.398V13.93h0.818c0.534,0,0.871,0.21,0.871,0.715c0,0.325-0.178,0.535-0.441,0.629l0.619,1.019h-0.493
		L101.259,15.358z M103.002,15.138c0-0.967-0.787-1.755-1.753-1.755c-0.966,0-1.753,0.789-1.753,1.755
		c0,1.006,0.694,1.753,1.753,1.753C102.216,16.891,103.002,16.104,103.002,15.138 M99.108,15.138c0-1.175,0.965-2.142,2.142-2.142
		s2.141,0.967,2.141,2.142c0,1.174-0.964,2.141-2.141,2.141C99.979,17.279,99.108,16.407,99.108,15.138"/>
	<path d="M137.468,12.157c-0.031-0.111-0.064-0.224-0.098-0.333c-0.067-0.218-0.141-0.438-0.22-0.651
		c-0.04-0.107-0.08-0.215-0.124-0.32c-0.103-0.264-0.216-0.526-0.335-0.785c-0.047-0.102-0.097-0.205-0.148-0.306
		c-0.052-0.102-0.102-0.202-0.155-0.303c-0.106-0.199-0.216-0.397-0.331-0.592c-0.057-0.096-0.117-0.194-0.177-0.289
		c-0.088-0.143-0.181-0.285-0.275-0.424c-0.032-0.047-0.064-0.094-0.096-0.141c-0.063-0.091-0.128-0.184-0.195-0.275
		c-0.132-0.18-0.269-0.361-0.41-0.534c-0.211-0.261-0.433-0.518-0.662-0.763c-0.227-0.246-0.469-0.486-0.713-0.715
		c-0.083-0.076-0.166-0.152-0.248-0.226c-0.125-0.111-0.255-0.22-0.384-0.328c-0.172-0.143-0.352-0.281-0.53-0.415
		c-0.406-0.303-0.831-0.588-1.265-0.844c-0.193-0.116-0.394-0.226-0.591-0.331c-0.099-0.052-0.203-0.104-0.303-0.154
		c-0.923-0.458-1.896-0.814-2.897-1.06c-0.056-0.012-0.111-0.024-0.169-0.039c-0.112-0.027-0.227-0.052-0.339-0.075
		c-0.229-0.048-0.462-0.089-0.691-0.124c-0.291-0.043-0.585-0.078-0.88-0.106c-0.117-0.01-0.236-0.019-0.355-0.024
		c-0.297-0.021-0.601-0.031-0.9-0.031c-1.893,0-3.73,0.373-5.459,1.103c-1.67,0.705-3.169,1.718-4.458,3.005
		c-1.288,1.287-2.299,2.787-3.006,4.459c-0.729,1.728-1.101,3.566-1.101,5.458c0,1.542,0.248,3.057,0.738,4.504
		c0.102,0.302,0.217,0.607,0.341,0.903c0.103,0.245,0.341,0.396,0.597,0.396c0.017,0,0.034-0.001,0.051-0.001
		c0.333-0.026,0.596-0.306,0.596-0.645c0-0.04-0.003-0.078-0.009-0.114c-0.22-1.666-0.332-3.362-0.332-5.043
		c0-1.626,0.318-3.203,0.947-4.688c0.606-1.433,1.475-2.72,2.58-3.828c1.106-1.105,2.395-1.973,3.828-2.581
		c1.484-0.628,3.062-0.945,4.688-0.945c1.626,0,3.202,0.316,4.687,0.945c1.434,0.607,2.722,1.475,3.829,2.581
		c1.104,1.108,1.973,2.396,2.58,3.828c0.629,1.486,0.947,3.063,0.947,4.688c0,1.073,0.121,2.142,0.362,3.178
		c0.067,0.291,0.33,0.5,0.629,0.5c0.301,0,0.563-0.209,0.63-0.5c0.239-1.036,0.36-2.104,0.36-3.178
		C138,14.689,137.821,13.398,137.468,12.157"/>
	<path d="M134.725,19.742c-0.298-1.219-0.448-2.48-0.448-3.747c0-1.391-0.272-2.74-0.81-4.011c-0.519-1.227-1.262-2.327-2.208-3.274
		c-0.946-0.944-2.048-1.688-3.275-2.208c-1.269-0.537-2.617-0.808-4.008-0.808s-2.739,0.271-4.01,0.808
		c-1.227,0.52-2.329,1.264-3.273,2.208c-0.947,0.947-1.689,2.047-2.208,3.274c-0.538,1.271-0.81,2.62-0.81,4.011
		c0,3.717,0.559,7.387,1.661,10.901c0.041,0.129,0.121,0.242,0.23,0.324c0.314,0.236,0.644,0.462,0.979,0.672
		c0.106,0.066,0.224,0.098,0.344,0.098h0.002c0.355-0.001,0.645-0.288,0.645-0.646c0-0.084-0.017-0.164-0.045-0.237
		c-1.218-3.564-1.835-7.304-1.835-11.112c0-2.222,0.865-4.311,2.437-5.883c1.571-1.569,3.659-2.437,5.882-2.437
		c2.222,0,4.311,0.868,5.881,2.437c1.572,1.572,2.438,3.661,2.438,5.883c0,2.814,0.677,5.622,1.96,8.117
		c0.103,0.2,0.303,0.333,0.526,0.35c0.225,0.017,0.442-0.085,0.574-0.268c0.161-0.223,0.315-0.455,0.464-0.684
		c0.12-0.191,0.134-0.429,0.035-0.629C135.369,21.878,134.989,20.822,134.725,19.742"/>
	<path d="M130.553,15.995c0-1.759-0.684-3.408-1.927-4.65c-1.242-1.243-2.894-1.927-4.65-1.927c-1.756,0-3.41,0.684-4.65,1.927
		c-1.243,1.242-1.926,2.891-1.926,4.65c0,2.369,0.254,4.732,0.757,7.022c0.468,2.139,1.158,4.237,2.049,6.238
		c0.082,0.184,0.242,0.318,0.438,0.366c0.287,0.069,0.581,0.13,0.873,0.182c0.012,0,0.024,0.003,0.036,0.005
		c0.028,0.004,0.055,0.006,0.082,0.006c0.007,0,0.014,0,0.019,0c0.349-0.011,0.629-0.295,0.629-0.646
		c0-0.108-0.025-0.208-0.072-0.298c-0.837-1.807-1.497-3.699-1.966-5.629c-0.572-2.36-0.862-4.798-0.862-7.247
		c0-2.534,2.061-4.594,4.596-4.594c2.533,0,4.595,2.061,4.595,4.594c0,3.856,1.035,7.641,2.993,10.943
		c0.095,0.159,0.252,0.269,0.434,0.304c0.182,0.036,0.371-0.007,0.517-0.121c0.192-0.149,0.383-0.303,0.567-0.461
		c0.239-0.203,0.296-0.546,0.137-0.818C131.475,22.867,130.553,19.462,130.553,15.995"/>
	<path d="M126.829,15.995c0-1.574-1.28-2.853-2.853-2.853c-1.573,0-2.853,1.279-2.853,2.853c0,2.485,0.315,4.95,0.938,7.332
		c0.571,2.188,1.404,4.306,2.473,6.304c0.114,0.21,0.333,0.34,0.57,0.34c0.017,0,0.036,0,0.055-0.002
		c0.257-0.023,0.518-0.052,0.774-0.086c0.21-0.03,0.393-0.161,0.488-0.351c0.095-0.189,0.092-0.413-0.01-0.6
		c-0.998-1.818-1.783-3.751-2.333-5.74c-0.646-2.334-0.973-4.754-0.973-7.197c0-0.481,0.392-0.871,0.872-0.871
		c0.48,0,0.872,0.39,0.872,0.871c0,4.5,1.202,8.919,3.476,12.777c0.161,0.276,0.498,0.39,0.794,0.274
		c0.226-0.088,0.451-0.184,0.671-0.285c0.167-0.077,0.294-0.219,0.349-0.397c0.056-0.174,0.033-0.365-0.062-0.524
		C127.952,24.269,126.829,20.173,126.829,15.995"/>
	<path d="M62.753,15.138c0,1.224-0.994,2.141-2.141,2.141c-1.146,0-2.141-0.917-2.141-2.141s0.994-2.142,2.141-2.142
		C61.759,12.996,62.753,13.914,62.753,15.138"/>
	<path d="M46.084,26.072h0.076c0.802-3.058,2.065-5.429,5.238-5.429c2.103,0,3.021,1.492,3.021,2.638
		c0,1.032-0.841,2.027-2.027,2.027c-1.224,0-1.875-0.728-1.875-1.796c0-0.613,0.268-1.147,0.805-1.494
		c-0.154-0.038-0.269-0.075-0.498-0.075c-2.562,0-4.303,4.561-4.303,11.825v2.256c0,1.195,0.679,1.72,2.775,1.745h-0.001
		c0.358,0,0.65,0.292,0.65,0.652c0,0.358-0.292,0.65-0.65,0.65H40.55c-0.36,0-0.65-0.292-0.65-0.65c0-0.36,0.29-0.654,0.65-0.654
		c1.825-0.058,2.407-0.476,2.407-1.604V24.008c0-1.053-0.54-1.483-2.096-1.583c-0.366,0-0.694-0.298-0.694-0.665
		c0-0.366,0.296-0.661,0.663-0.661l5.254-0.226V26.072z"/>
	<path d="M62.829,36.024c0,1.195,0.68,1.72,2.776,1.745h-0.001c0.36,0,0.651,0.292,0.651,0.652c0,0.357-0.292,0.65-0.651,0.65
		h-8.745c-0.359,0-0.65-0.292-0.65-0.65c0-0.36,0.292-0.654,0.65-0.654c1.823-0.058,2.407-0.476,2.407-1.604V24.008
		c0-1.053-0.541-1.483-2.095-1.583c-0.366,0-0.694-0.298-0.694-0.665c0-0.366,0.297-0.661,0.661-0.661l5.691-0.226V36.024z"/>
	<path d="M71.975,42.982c0,1.195,0.677,1.722,2.774,1.744l0,0c0.359,0,0.649,0.295,0.649,0.654s-0.291,0.649-0.649,0.649h-8.745
		c-0.359,0-0.651-0.29-0.651-0.649s0.292-0.654,0.651-0.654c1.823-0.059,2.407-0.476,2.407-1.602V24.006
		c0-1.052-0.541-1.483-2.096-1.583c-0.366,0-0.693-0.296-0.693-0.662s0.295-0.665,0.663-0.665l5.416-0.222v3.746h0.077
		c0.956-2.141,2.333-3.976,5.391-3.976c4.474,0,8.068,4.473,8.068,9.251c0,5.046-3.441,9.636-8.028,9.636
		c-2.715,0-3.978-0.917-5.125-3.098h-0.108V42.982z M72.007,30.2v1.033c0,5.812,3.097,6.996,4.359,6.996
		c3.593,0,4.971-2.371,4.971-8.029c0-4.814-1.378-8.258-4.667-8.258C73.766,21.942,72.007,25.386,72.007,30.2"/>
	<path d="M38.454,35.826c-1.561,2.283-3.841,3.705-7.089,3.705c-5.24,0-9.251-3.977-9.251-9.445c0-5.466,4.855-9.442,9.978-9.442
		c3.135,0,6.348,1.529,6.348,4.281c0,1.301-0.918,2.449-2.372,2.449c-1.492,0-2.369-0.919-2.369-2.064
		c0-1.147,0.687-1.836,1.949-1.836c0.268,0,0.535,0.04,0.803,0.076c-0.574-1.108-2.102-1.606-4.206-1.606
		c-3.709,0-6.003,2.638-6.003,7.724c0,4.779,1.759,8.563,5.85,8.563c2.495,0,4.157-1.281,5.44-2.997
		c0.167-0.255,0.524-0.356,0.779-0.19C38.567,35.209,38.619,35.568,38.454,35.826"/>
	<path d="M2,30.043c0-0.332,0.27-0.603,0.603-0.603c0.287,0,0.529,0.202,0.588,0.469c0.908,4.088,3.903,8.32,8.443,8.32
		c2.868,0,5.697-1.873,5.697-4.969c0-8.604-15.293-3.519-15.293-13.688c0-4.59,4.092-7.267,8.182-7.267
		c3.479,0,5.313,2.217,6.231,2.217c0.431,0,0.829-0.783,1.042-1.332c0.114-0.269,0.39-0.468,0.701-0.468
		c0.414,0,0.749,0.337,0.749,0.751v7.456c0,0.353-0.285,0.637-0.638,0.637c-0.291,0-0.505-0.178-0.614-0.509
		c-1.065-3.613-3.242-7.451-7.434-7.451c-2.907,0-5.086,1.568-5.086,4.627c0,7.303,15.295,3.363,15.295,12.77
		c0,5.313-4.091,8.526-9.176,8.526c-3.595,0-4.972-1.988-6.423-1.988c-0.842,0-1.212,0.576-1.585,1.332
		c-0.112,0.225-0.337,0.38-0.603,0.38C2.306,39.254,2,38.95,2,38.573V30.043z"/>
	<path d="M96.477,33.853c0-0.308,0.248-0.556,0.555-0.556c0.305,0,0.553,0.249,0.553,0.556c0,3.439-1.07,5.677-4.856,5.677
		c-2.677,0-4.741-0.879-4.741-4.665V22.402h-2.187c-0.371,0-0.672-0.321-0.672-0.691s0.218-0.587,0.672-0.672
		c2.864-0.341,3.419-1.412,4.245-5.138c0.103-0.504,0.342-0.763,0.763-0.763c0.423,0,0.772,0.342,0.772,0.763v5.201h4.745
		c0.358,0,0.634,0.305,0.634,0.663c0,0.361-0.276,0.637-0.634,0.637h-4.745v13.839c0,1.606,0.994,1.989,2.104,1.989
		C95.177,38.229,96.477,37.094,96.477,33.853"/>
</g>
</svg>
